<svg xmlns="http://www.w3.org/2000/svg" viewBox="0 0 50 50" width="50" height="50">
    <path fill="#000" d="M25.251,6.461c-0.531,0-0.96,0.429-0.96,0.96v4.083c0,0.531,0.429,0.96,0.96,0.96c10.091,0,18.281,8.19,18.281,18.281c0,10.091-8.19,18.281-18.281,18.281S6.97,40.835,6.97,30.744c0-6.607,3.675-12.686,9.635-15.773c0.479-0.246,0.663-0.837,0.418-1.316c-0.245-0.479-0.837-0.664-1.316-0.418c-6.738,3.456-11.015,10.299-11.015,17.506c0,11.134,9.065,20.199,20.199,20.199s20.199-9.065,20.199-20.199S36.386,6.461,25.251,6.461z">
        <animateTransform attributeType="xml" attributeName="transform" type="rotate" from="0 25 25" to="360 25 25" dur="1s" repeatCount="indefinite"/>
    </path>
</svg>
